<?xml version="1.0" standalone="no"?>
<!DOCTYPE svg PUBLIC "-//W3C//DTD SVG 20010904//EN"
 "http://www.w3.org/TR/2001/REC-SVG-20010904/DTD/svg10.dtd">
<svg version="1.0" xmlns="http://www.w3.org/2000/svg"
 width="512.000000pt" height="512.000000pt" viewBox="0 0 512.000000 512.000000"
 preserveAspectRatio="xMidYMid meet">
<metadata>
Created by potrace 1.13, written by Peter Selinger 2001-2015
</metadata>
<g transform="translate(0.000000,512.000000) scale(0.100000,-0.100000)"
fill="#000000" stroke="none">
<path d="M3883 4629 c-186 -18 -397 -100 -548 -212 -61 -46 -172 -156 -219
-217 -127 -166 -206 -365 -226 -576 -24 -255 40 -507 183 -722 298 -446 870
-616 1367 -407 259 109 486 340 591 600 141 352 102 733 -106 1045 -185 278
-487 457 -823 490 -107 10 -104 11 -219 -1z m254 -491 c23 -21 23 -25 23 -240
l0 -218 217 0 c276 0 263 8 263 -159 0 -169 13 -161 -262 -161 l-218 0 0 -217
c0 -276 8 -263 -159 -263 -169 0 -161 -13 -161 262 l0 218 -217 0 c-276 0
-263 -8 -263 159 0 169 -13 161 262 161 l218 0 0 217 c0 276 -8 263 159 263
104 0 117 -2 138 -22z"/>
<path d="M113 4469 c-44 -13 -90 -62 -103 -110 -22 -79 29 -167 108 -189 20
-5 121 -10 223 -10 l185 0 352 -1127 c194 -621 352 -1134 352 -1140 0 -7 -7
-13 -16 -13 -29 0 -159 -67 -211 -108 -69 -55 -139 -156 -171 -245 -35 -101
-35 -232 0 -333 64 -183 212 -314 407 -362 l67 -17 32 -66 c85 -178 294 -289
490 -259 146 22 290 126 349 250 l28 59 355 0 355 0 28 -59 c80 -169 293 -279
485 -250 145 22 290 126 349 250 l28 57 120 4 c97 3 126 8 153 24 101 60 101
206 2 268 -30 19 -53 23 -155 26 l-120 4 -29 59 c-59 123 -203 226 -348 248
-192 29 -404 -80 -484 -249 l-29 -60 -355 0 -355 0 -29 60 c-58 124 -202 226
-348 249 -190 29 -395 -74 -483 -242 l-29 -55 -41 14 c-94 32 -155 116 -155
213 0 96 51 168 150 214 45 21 52 21 1330 26 l1285 5 35 22 c19 12 41 32 49
45 12 19 134 480 128 484 -1 1 -72 4 -159 6 l-156 5 -22 -86 c-11 -47 -25
-103 -31 -123 l-10 -38 -179 0 -180 0 0 160 0 160 83 0 82 1 -75 33 c-135 60
-313 178 -384 255 l-30 31 -398 0 -398 0 0 160 0 160 276 0 c217 0 275 3 271
13 -33 73 -79 192 -93 243 l-19 64 -217 0 -218 0 0 160 0 160 200 0 200 0 0
68 c1 37 7 103 15 147 8 44 15 86 15 93 0 9 -178 12 -858 12 l-858 0 -84 268
c-45 147 -90 280 -99 295 -9 16 -32 38 -51 50 -33 21 -47 22 -305 24 -148 1
-284 -2 -302 -8z m1807 -1109 l0 -160 -383 0 -383 0 -47 149 c-26 82 -47 154
-47 160 0 8 128 11 430 11 l430 0 0 -160z m0 -640 l0 -160 -283 0 -283 0 -47
149 c-26 82 -47 154 -47 160 0 8 100 11 330 11 l330 0 0 -160z m0 -640 l0
-160 -183 0 -183 0 -47 149 c-26 82 -47 154 -47 160 0 8 72 11 230 11 l230 0
0 -160z m1120 0 l0 -160 -400 0 -400 0 0 160 0 160 400 0 400 0 0 -160z
m-1200 -962 c132 -67 132 -249 0 -315 -56 -29 -104 -29 -160 0 -132 66 -132
248 0 315 24 12 60 22 80 22 20 0 56 -10 80 -22z m1600 0 c132 -67 132 -249 0
-315 -56 -29 -104 -29 -160 0 -132 66 -132 248 0 315 24 12 60 22 80 22 20 0
56 -10 80 -22z"/>
</g>
</svg>
